<?xml version="1.0" standalone="no"?>
<!DOCTYPE svg PUBLIC "-//W3C//DTD SVG 1.1//EN" "http://www.w3.org/Graphics/SVG/1.1/DTD/svg11.dtd" >
<svg xmlns="http://www.w3.org/2000/svg">
<metadata>Generated by IcoMoon</metadata>
<defs>
<font id="icomoon" horiz-adv-x="1024">
<font-face units-per-em="1024" ascent="960" descent="-64" />
<missing-glyph horiz-adv-x="1024" />
<glyph unicode="&#x20;" horiz-adv-x="512" d="" />
<glyph unicode="&#xe900;" glyph-name="--44px" horiz-adv-x="1117" d="M1107.852 374.039l-525.545 575.302c-6.214 6.796-14.685 10.659-23.505 10.659s-17.268-3.863-23.529-10.659l-525.545-575.302c-12.986-14.196-12.986-37.329 0-51.549 13.009-14.173 29.929-14.173 42.915 0l100.561 114.688v-455.68c0.023-20.061 23.249-45.475 41.612-45.475h732.090c18.409 0 24.925 25.414 24.925 45.498v451.095l104.704-110.103c6.54-7.052 17.129-10.682 25.67-10.682 8.495 0 18.013 3.631 24.576 10.682 13.009 14.266 14.057 37.329 1.071 51.526zM652.404 8.867h-199.68v245.853c0 30.138 30.371 45.545 57.879 45.545h99.863c27.532 0 41.961-15.407 41.961-45.545v-245.853zM885.364 8.867h-166.353v245.853c0 70.307-44.288 118.412-108.544 118.412h-99.84c-64.233 0-124.439-48.081-124.439-118.412v-245.853h-166.4v500.899c0 0.093 4.143 0.163 4.143 0.256l328.634 362.031 332.8-366.545v-496.64z" />
<glyph unicode="&#xe901;" glyph-name="--44px2" horiz-adv-x="1117" d="M1107.852 374.039l-525.545 575.302c-6.214 6.796-14.685 10.659-23.505 10.659s-17.268-3.863-23.529-10.659l-525.545-575.302c-12.986-14.196-12.986-37.329 0-51.549 13.009-14.173 29.929-14.173 42.915 0l100.561 114.688v-455.68c0.023-20.061 23.249-45.475 41.612-45.475h732.090c18.409 0 24.925 25.414 24.925 45.498v451.095l104.704-110.103c6.54-7.052 17.129-10.682 25.67-10.682 8.495 0 18.013 3.631 24.576 10.682 13.009 14.266 14.057 37.329 1.071 51.526zM652.404 8.867h-199.68v245.853c0 30.138 30.371 45.545 57.879 45.545h99.863c27.532 0 41.961-15.407 41.961-45.545v-245.853z" />
<glyph unicode="&#xe902;" glyph-name="--44px3" d="M960 160c0-35.328-29.626-52.992-64-64 0 0-174.173-48.5-352-95.255v799.255l352 96c35.328 0 64-28.672 64-64v-672zM480 0.070c-174.778 47.034-352 95.93-352 95.93-36.352 10.007-64 28.672-64 64v672c0 35.328 28.672 64 64 64l352-96v-799.93zM896 960c0 0-185.251-50.991-353.583-96-21.085-0.791-42.333 0-63.488 0-160.372 43.008-350.929 96-350.929 96-70.679 0-128-57.321-128-128v-672c0-70.679 60.323-106.007 128-128 0 0 172.591-48.012 350.929-96h64.815c179.828 48.012 352.256 96 352.256 96 65.676 16.989 128 57.321 128 128v672c0 70.679-57.321 128-128 128v0z" />
<glyph unicode="&#xe903;" glyph-name="--44px4" d="M128 960c-70.679 0-128-57.321-128-128v-672c0-70.679 60.323-106.007 128-128l352-96v928c-160.396 43.008-352 96-352 96v0zM896 960c0 0-185.228-50.991-353.559-96h1.559v-928c179.759 47.988 352 96 352 96 65.676 16.989 128 57.321 128 128v672c0 70.679-57.321 128-128 128v0z" />
<glyph unicode="&#xe904;" glyph-name="--44px5" horiz-adv-x="1210" d="M23.273-65.117v138.473c0.093 8.681 5.097 84.899 153.181 151.040 17.315 7.703 37.306 18.967 60.463 32 55.063 30.999 128.116 72.099 220.905 95.302-27.113 39.098-49.99 90.461-75.846 156.207-16.593 42.193-16.337 79.546-16.012 122.81l0.093 19.782c0 10.822-0.582 23.552-1.21 36.98-1.676 36.166-3.561 77.149 4.329 105.309 31.255 111.756 108.009 166.097 234.612 166.097 126.534 0 203.217-54.202 234.519-165.725 7.959-28.3 6.074-69.469 4.399-105.775-0.605-13.382-1.21-26.065-1.21-36.864l0.116-19.968c0.349-43.055 0.605-80.244-15.872-122.275-24.995-63.674-48.384-116.015-76.125-155.997 93.719-22.993 167.447-64.396 222.999-95.581 23.18-13.056 43.217-24.297 60.579-32 148.596-66.141 153.647-142.569 153.716-151.063v-138.566l-1163.636-0.186zM603.741 912.291c-105.705 0-164.236-40.727-189.789-132.049-5.841-20.945-4.073-59.578-2.653-90.601 0.652-14.196 1.28-27.648 1.28-39.121l-0.093-20.131c-0.303-41.565-0.512-71.587 12.777-105.379 31.279-79.569 57.414-136.122 91.113-172.195l29.091-31.116-41.891-7.703c-103.121-18.967-181.178-62.906-243.875-98.188-24.18-13.615-45.033-25.367-64.326-33.955-119.901-53.551-125.556-108.94-125.58-109.475l0.023-90.903 1070.569 0.14v91.741c-0.070 0-6.167 55.319-126.092 108.707-19.34 8.588-40.239 20.34-64.465 33.932-63.209 35.514-141.917 79.709-245.993 98.397l-42.1 7.54 29.184 31.279c34.304 36.771 61.37 95.395 91.485 172.079 13.172 33.652 12.963 63.535 12.66 104.89l-0.116 20.34c0 11.427 0.605 24.832 1.257 38.982 1.443 31.185 3.188 70.004-2.723 91.089-25.577 91.066-84.084 131.7-189.743 131.7z" />
<glyph unicode="&#xe905;" glyph-name="--44px6" horiz-adv-x="1210" d="M1044.084 192.861c-70.307 31.465-174.569 112.477-328.983 140.335 39.494 42.589 69.353 109.126 100.143 187.997 17.827 45.684 14.778 84.666 14.778 140.125 0 40.983 7.61 106.729-2.444 142.871-34.071 122.112-120.134 155.811-220.998 155.811s-186.996-33.862-221.021-156.183c-10.031-36.026-2.327-101.632-2.327-142.499 0-55.599-3.002-94.673 14.895-140.451 30.976-79.267 60.393-145.734 99.77-188.113-153.158-28.346-256.652-108.8-326.516-140.125-144.477-64.884-145.175-135.959-145.175-135.959v-120.669l1163.636 0.14v120.529c-0.023 0-0.745 71.284-145.757 136.192z" />
<glyph unicode="&#xe906;" glyph-name="-28px" d="M512-64c-282.331 0-512 229.669-512 512s229.669 512 512 512 512-229.669 512-512-229.669-512-512-512zM512 907.923c-253.622 0-459.923-206.299-459.923-459.923s206.299-459.923 459.923-459.923 459.923 206.299 459.923 459.923-206.299 459.923-459.923 459.923zM534.82 480.001v306.286h-54.857v-361.143h361.143v54.857z" />
<glyph unicode="&#xe907;" glyph-name="-28px2" d="M512-64c-282.331 0-512 229.669-512 512s229.669 512 512 512 512-229.669 512-512-229.669-512-512-512zM512 907.923c-253.622 0-459.923-206.299-459.923-459.923s206.299-459.923 459.923-459.923 459.923 206.299 459.923 459.923-206.299 459.923-459.923 459.923zM373.137 168.85l-6.875 557.751 460.837-273.701-453.961-284.050zM419.474 634.478l4.571-372.335 303.031 189.623-307.603 182.712z" />
<glyph unicode="&#xe908;" glyph-name="PPT-180px" horiz-adv-x="288" d="M50.402-38.64l-20.606 10.023 202.81 477.313-202.81 477.291 20.606 10.709 209.691-488z" />
<glyph unicode="&#xe909;" glyph-name="PPT-180px2" horiz-adv-x="288" d="M239.487 936.696l20.606-10.023-202.81-477.313 202.81-477.291-20.606-10.709-209.691 488z" />
<glyph unicode="&#xe90a;" glyph-name="-40px2" d="M0 960v-1024l1024 511.232z" />
<glyph unicode="&#xe90b;" glyph-name="-24px" d="M1024 448c0-282.77-229.23-512-512-512s-512 229.23-512 512c0 282.77 229.23 512 512 512s512-229.23 512-512z" />
<glyph unicode="&#xe90c;" glyph-name="-40px" d="M512 960c-282.778 0-512-229.222-512-512s229.222-512 512-512 512 229.222 512 512-229.222 512-512 512zM828.416 582.093l-331.52-395.802c-9.549-11.392-28.416-19.891-41.933-19.891h-28.621c-13.517 0-32.384 8.499-41.933 19.942l-156.109 186.778c-9.549 11.418-9.523 29.901 0.051 41.318l61.414 73.216c9.549 11.418 25.216 11.366 34.765-0.026l99.738-118.861c9.6-11.366 25.19-11.341 34.739 0.051l273.408 327.066c9.574 11.418 25.19 11.469 34.765 0.077l61.133-72.422c9.626-11.366 9.651-30.029 0.102-41.446z" />
<glyph unicode="&#xe90d;" glyph-name="关闭-30px" d="M1023.969 893.575l-66.394 66.427-445.606-445.606-445.575 445.606-66.427-66.394 445.606-445.606-445.606-445.575 66.394-66.394 445.606 445.575 445.575-445.606 66.394 66.394-445.575 445.606z" />
<glyph unicode="&#xe90e;" glyph-name="-40px4" d="M0.102 960.026h384v-1024.026h-384v1024.026zM639.898 960.026h384v-1024.026h-384v1024.026z" />
<glyph unicode="&#xe90f;" glyph-name="-32px" d="M553.632-61.952v859.36l282.464-290.464 59.904 61.6-354.048 364.096-29.952 29.408-29.952-29.44-354.048-364.064 59.872-61.6 282.496 290.464v-859.328l83.264-0.032z" />
<glyph unicode="&#xe910;" glyph-name="-32px2" d="M470.336 962.048v-859.328l-282.464 290.464-59.872-61.632 354.048-364.064 29.952-29.44 29.952 29.44 354.048 364.064-59.872 61.632-282.464-290.464v859.328h-83.328z" />
<glyph unicode="&#xe911;" glyph-name="-44px" d="M776.844-64l-575.279 512 575.279 512 29.812-34.63-536.39-477.37 536.39-477.417z" />
<glyph unicode="&#xe912;" glyph-name="-22px" d="M512.455 729.116c-277.134 0-512.455-306.148-512.455-306.148v-11.577c0 0 234.439-308.053 511.545-308.053s512.455 306.148 512.455 306.148v11.548c0 0.028-234.468 308.082-511.545 308.082zM512.142 230.77c-102.144 0-184.889 82.802-184.889 184.889 0 102.144 82.745 184.889 184.889 184.889 102.087 0 184.889-82.773 184.889-184.889 0.028-102.087-82.773-184.889-184.889-184.889zM588.43 416.228c0-42.918-34.792-77.71-77.71-77.71s-77.71 34.792-77.71 77.71c0 42.918 34.792 77.71 77.71 77.71s77.71-34.792 77.71-77.71z" />
<glyph unicode="&#xe913;" glyph-name="-30px" d="M244.941-64l-30.242 34.679 544.631 477.321-544.631 477.321 30.242 34.679 584.158-512z" />
<glyph unicode="&#xe914;" glyph-name="-100px" d="M228.864 454.339l-33.034-53.78 203.735-248.648 434.995 510.751-33.044 40.325-401.951-396.483zM512-64c-282.317 0-512 229.693-512 512 0 282.317 229.683 512 512 512 282.307 0 512-229.683 512-512 0-282.307-229.693-512-512-512zM512 922.993c-261.908 0-474.993-213.084-474.993-474.993 0-261.898 213.084-474.993 474.993-474.993 261.898 0 474.993 213.094 474.993 474.993 0 261.908-213.094 474.993-474.993 474.993z" />
<glyph unicode="&#xe915;" glyph-name="键盘收起" horiz-adv-x="1175" d="M1168.682 919.015c-15.328 15.304-33.792 22.969-55.414 22.969h-1018.649c-21.622 0-40.109-7.664-55.389-22.969s-22.969-33.792-22.969-55.389v-548.504c0-21.597 7.664-40.085 22.969-55.365 15.304-15.353 33.767-22.969 55.389-22.969h1018.649c21.622 0 40.085 7.64 55.414 22.969 15.28 15.28 22.969 33.767 22.969 55.365v548.504c-0.025 21.597-7.689 40.085-22.969 55.389zM1113.268 315.099h-1018.649v548.504h1018.649v-548.504zM182.771 393.481h58.769c6.538 0 9.77 3.257 9.77 9.77v58.769c0 6.513-3.257 9.77-9.77 9.77h-58.769c-6.538 0-9.795-3.282-9.795-9.77v-58.769c0-6.513 3.257-9.77 9.795-9.77zM182.771 550.22h137.126c6.538 0 9.795 3.257 9.795 9.746v58.793c0 6.538-3.257 9.77-9.795 9.77h-137.126c-6.538 0-9.795-3.257-9.795-9.77v-58.793c0-6.489 3.257-9.746 9.795-9.746zM182.771 706.911h58.769c6.538 0 9.77 3.257 9.77 9.795v58.744c0 6.538-3.257 9.795-9.77 9.795h-58.769c-6.538 0-9.795-3.282-9.795-9.795v-58.744c0-6.538 3.257-9.795 9.795-9.795zM868.425 471.838h-528.914c-6.538 0-9.795-3.282-9.795-9.77v-58.769c0-6.538 3.282-9.795 9.795-9.795h528.889c6.562 0 9.795 3.282 9.795 9.795v58.769c0 6.489-3.257 9.77-9.77 9.77zM408.050 559.966c0-6.513 3.282-9.746 9.795-9.746h58.769c6.538 0 9.795 3.257 9.795 9.746v58.793c0 6.538-3.257 9.77-9.795 9.77h-58.769c-6.513 0-9.795-3.257-9.795-9.77v-58.793zM339.511 706.911h58.744c6.538 0 9.795 3.257 9.795 9.795v58.744c0 6.538-3.257 9.795-9.795 9.795h-58.744c-6.538 0-9.795-3.282-9.795-9.795v-58.744c-0.025-6.538 3.257-9.795 9.795-9.795zM564.74 559.966c0-6.513 3.282-9.746 9.795-9.746h58.793c6.538 0 9.77 3.257 9.77 9.746v58.793c0 6.538-3.257 9.77-9.77 9.77h-58.793c-6.513 0-9.795-3.257-9.795-9.77v-58.793zM496.202 706.911h58.769c6.538 0 9.795 3.257 9.795 9.795v58.744c0 6.538-3.232 9.795-9.795 9.795h-58.769c-6.538 0-9.795-3.282-9.795-9.795v-58.744c0-6.538 3.257-9.795 9.795-9.795zM721.48 559.966c0-6.513 3.282-9.746 9.795-9.746h58.744c6.538 0 9.77 3.257 9.77 9.746v58.793c0 6.538-3.257 9.77-9.77 9.77h-58.744c-6.538 0-9.795-3.257-9.795-9.77v-58.793zM1025.091 471.838h-58.719c-6.562 0-9.82-3.282-9.82-9.77v-58.769c0-6.538 3.282-9.795 9.82-9.795h58.719c6.538 0 9.795 3.282 9.795 9.795v58.769c0.025 6.489-3.257 9.77-9.795 9.77zM652.917 706.911h58.769c6.538 0 9.77 3.257 9.77 9.795v58.744c0 6.538-3.257 9.795-9.77 9.795h-58.769c-6.562 0-9.795-3.282-9.795-9.795v-58.744c0-6.538 3.232-9.795 9.795-9.795zM809.608 706.911h58.769c6.562 0 9.795 3.257 9.795 9.795v58.744c0 6.538-3.257 9.795-9.795 9.795h-58.769c-6.538 0-9.795-3.282-9.795-9.795v-58.744c0-6.538 3.282-9.795 9.795-9.795zM878.195 559.966c0-6.513 3.232-9.746 9.77-9.746h137.126c6.538 0 9.795 3.257 9.795 9.746v215.483c0 6.538-3.282 9.795-9.795 9.795h-58.719c-6.562 0-9.82-3.282-9.82-9.795v-146.921h-68.562c-6.562 0-9.77-3.257-9.77-9.77v-58.793zM799.862 117.392l-55.854 49.219-140.039-105.587-140.039 104.192-55.854-49.219 195.894-145.281z" />
<glyph unicode="&#xe916;" glyph-name="写作业-28px" d="M1000.929-3.205h-817.604l137.005 35.511c18.681 1.669 36.89 4.897 51.146 19.443l592.89 604.788c32.139 32.937 32.139 85.352 0 118.251l-140.995 143.752c-32.139 32.937-84.445 32.609-116.582-0.29l-592.853-607.145c-14.291-14.546-21.873-33.335-23.433-52.415l-82.813-267.408c-4.534-14.981-0.581-31.304 10.229-42.368 6.783-6.929 15.561-15.272 24.775-16.286 1.051-0.145 2.032-5.151 3.156-5.151h955.080c11.354 0 20.567 23.034 20.567 34.641 0 11.644-9.213 34.678-20.567 34.678zM765.116 858.325l140.922-144.332-578.271-592.092-140.922 144.296 578.271 592.127zM163.993 222.779c0.581 1.995 0.835 3.881 1.16 5.876l125.941-128.989c-1.886-0.326-3.809-0.581-5.767-1.197l-175.745-55.68 54.41 179.989z" />
<glyph unicode="&#xe917;" glyph-name="下拉" d="M528.944 295.973h-33.889l-495.056 270.030 33.889 62.152 478.111-260.782 478.111 260.782 33.889-62.152zM528.944 75.651h-33.889l-495.056 270.030 33.889 62.152 478.111-260.782 478.111 260.782 33.889-62.152z" />
<glyph unicode="&#xe918;" glyph-name="全屏" d="M35.060 905.362l308.687-308.663 22.601 22.601-308.663 308.687h137.362v32.012h-176.006l-15.994-15.994v-176.006h32.012zM195.048-64v31.988h-137.362l308.663 308.712-22.601 22.601-308.687-308.687v137.387h-32.012v-176.006l15.994-15.994zM995.060-9.387l-308.712 308.687-22.601-22.601 308.687-308.712h-137.387v-31.988h176.006l15.994 15.994v176.006h-31.988zM835.048 960v-32.012h137.387l-308.687-308.687 22.601-22.601 308.712 308.663v-137.362h31.988v176.006l-15.994 15.994z" />
<glyph unicode="&#xe919;" glyph-name="退出全屏" d="M22.845-64l327.68 327.68v-138.63h32.305v177.615l-16.165 16.14h-177.615v-32.28h138.63l-327.68-327.68zM641.195 125.050h32.28v138.63l327.68-327.68 22.845 22.845-327.68 327.68h138.63v32.28h-177.615l-16.14-16.14zM641.195 770.95v-177.615l16.14-16.165h177.615v32.305h-138.63l327.68 327.68-22.845 22.845-327.68-327.68v138.63zM189.050 577.17h177.615l16.165 16.165v177.615h-32.305v-138.63l-327.68 327.68-22.845-22.845 327.68-327.68h-138.63z" />
<glyph unicode="&#xe91a;" glyph-name="问号" horiz-adv-x="1066" d="M530.458 947.654c-278.366 0-504.001-225.634-504.001-504.001s225.634-504.001 504.001-504.001 504.001 225.634 504.001 504.001-225.667 504.001-504.001 504.001zM556.699 89.278h-94.5v94.5h94.5v-94.5zM621.242 422.926c-42.808-27.814-96.044-66.339-64.543-115.605v-29.043h-94.5v35.469c0 59.913 36.383 109.179 94.122 147.703 62.087 42.808 96.358 87.759 92.074 134.883-4.315 70.654-39.091 102.060-109.746 106.344-72.765 2.079-117.243-46.431-138.6-140.931h-80.293c23.562 126.001 97.43 198.733 221.571 198.733 124.141-6.426 188.779-59.094 197.38-163.957 6.394-64.197-33.957-120.109-117.464-173.596z" />
<glyph unicode="&#xe91b;" glyph-name="返回-课程详情页-80px" horiz-adv-x="1013" d="M506.5 954.542c-279.75 0-506.542-226.792-506.542-506.542s226.792-506.542 506.542-506.542c279.763 0 506.542 226.792 506.542 506.542s-226.778 506.542-506.542 506.542zM656.689 142.377l-343.385 305.622 343.385 305.622 41.018-47.64-289.881-257.982 289.906-258.019-41.042-47.602z" />
<glyph unicode="&#xe91c;" glyph-name="小喇叭" horiz-adv-x="1161" d="M894.016-55.719c-13.223 0-23.952 4.962-32.213 14.886-8.261 9.068-11.989 19.419-11.133 30.98 0.805 11.561 5.768 21.484 14.861 29.745 61.127 54.504 108.201 118.956 141.246 193.282 33.045 74.351 49.567 152.404 49.567 234.185 0 82.612-16.522 161.094-49.567 235.42s-80.144 138.778-141.246 193.282c-9.068 8.261-14.054 18.184-14.861 29.745-0.831 11.561 2.871 21.887 11.133 30.98s18.184 14.054 29.745 14.861 21.887-2.896 30.954-11.158c70.22-62.79 124.347-136.914 162.327-222.423s56.997-175.727 56.997-270.731c0-94.147-19.016-184.013-56.997-269.471-38.006-85.509-92.107-159.633-162.327-222.423-9.068-7.43-18.563-11.158-28.487-11.158zM803.545 95.425c-11.561 0-21.484 4.13-29.745 12.391-9.068 9.068-13.626 19.419-13.626 30.954 0 11.586 4.558 21.509 13.626 29.745 37.201 38.006 65.486 81.177 84.878 129.509 19.419 48.308 29.116 98.908 29.116 151.775s-9.722 103.466-29.116 151.775-47.703 91.075-84.878 128.25c-9.068 9.093-13.626 19.419-13.626 30.98s4.558 21.887 13.626 30.954c9.093 8.261 19.419 12.391 30.98 12.391s21.484-4.558 29.745-13.626c45.436-46.268 80.118-98.504 104.071-156.736 23.952-58.257 35.941-119.586 35.941-184.013s-11.989-125.959-35.941-184.618c-23.952-58.659-58.634-110.721-104.071-156.132-9.093-9.042-19.419-13.601-30.98-13.601zM656.128 902.052c-19.016 6.598-34.707 3.3-47.099-9.923-0.805-0.831-8.261-8.060-22.29-21.686s-33.876-30.35-59.465-50.172-56.166-41.507-91.704-65.057-74.955-45.21-118.327-65.057c-43.371-19.822-89.841-36.345-139.407-49.567s-100.772-19.822-153.639-19.822c-12.391 0-22.719-4.332-30.98-13.022-8.261-8.664-12.391-18.79-12.391-30.376v-273.828c0-11.561 4.13-21.66 12.391-30.35s18.588-13.022 30.98-13.022c52.867 0 104.071-6.624 153.639-19.822s96.036-29.745 139.407-49.567c43.371-19.822 82.813-41.306 118.327-64.427 35.513-23.147 66.090-44.807 91.704-65.057s45.436-36.974 59.465-50.172 21.484-20.25 22.29-21.056c7.43-9.093 17.756-13.651 30.98-13.651 4.156 0 9.496 1.26 16.119 3.728 8.236 3.3 14.633 8.462 19.192 15.465s6.825 15.087 6.825 24.179v841.282c-0.025 19.092-8.689 32.718-26.017 40.979z" />
<glyph unicode="&#xe91d;" glyph-name="答题错误" horiz-adv-x="1340" d="M0 960.193v-996.319l1295.215 996.319h-1295.215zM473.932 488.353c-8.352 0-15.858 3.537-21.222 9.116l-115.523 115.523-113.481-113.464c-5.413-6.742-13.616-11.159-22.915-11.159-16.257 0-29.474 13.201-29.474 29.474 0 8.004 3.255 15.31 8.485 20.624l-0.133 0.166 115.938 115.938-115.158 115.158c-0.316 0.299-0.614 0.598-0.913 0.897l-1.378 1.378 0.133 0.133c-4.284 5.131-6.991 11.64-6.991 18.83 0 16.257 13.234 29.474 29.474 29.474 7.19 0 13.699-2.69 18.83-6.974l0.133 0.133 1.395-1.378c0.299-0.299 0.598-0.598 0.897-0.913l115.158-115.141 117.433 117.433 0.316-0.299c5.148 4.384 11.74 7.14 19.013 7.14 16.257 0 29.474-13.218 29.474-29.474 0-9.316-4.417-17.535-11.192-22.932l-113.448-113.464 115.507-115.523c5.596-5.347 9.133-12.869 9.133-21.205 0-16.29-13.218-29.491-29.491-29.491z" />
<glyph unicode="&#xe91e;" glyph-name="答题正确" horiz-adv-x="1359" d="M0 960.017v-1024.035l1331.267 1024.035h-1331.267zM383.047 452.361c-8.141-8.466-16.146-12.835-28.281-12.835-12.118 0-20.157 4.37-28.281 12.835l-121.026 127.972c-16.146 17.187-16.146 42.737 0 59.805 16.146 17.084 40.399 17.084 56.545 0l92.745-98.070 213.771 226.042c16.248 17.068 40.313 17.068 56.545 0 16.061-17.068 16.061-42.618 0-59.685l-242.018-256.064z" />
<glyph unicode="&#xe91f;" glyph-name="目录-知识点巩固-28px" d="M770.906 585.29h-517.814c-21.357 0-38.729-17.334-38.729-38.693s17.334-38.729 38.729-38.729h517.814c21.357 0 38.729 17.334 38.729 38.729-0.037 21.357-17.371 38.693-38.729 38.693zM770.87 387.182h-517.814c-21.357 0-38.693-17.371-38.693-38.766 0-21.357 17.334-38.693 38.693-38.693h517.779c21.357 0 38.729 17.334 38.729 38.693 0 21.394-17.334 38.766-38.693 38.766zM519.295 193.391h-266.203c-21.357 0-38.729-17.371-38.729-38.729s17.334-38.693 38.729-38.693h266.203c21.357 0 38.766 17.334 38.766 38.693s-17.409 38.729-38.766 38.729zM651.976 960.001h-491.52c-32.037 0-58.076-26.039-58.076-58.076v-907.886c0-32 26.039-58.039 58.076-58.039h703.123c32.037 0 58.039 26.039 58.039 58.039v696.32l-269.641 269.641zM844.196 13.387h-664.43v869.193h438.199v-90.294h-364.91c-21.357 0-38.729-17.371-38.729-38.693 0-21.394 17.334-38.729 38.729-38.729h364.91v-35.803h226.231v-665.673z" />
<glyph unicode="&#xe920;" glyph-name="小测试" horiz-adv-x="976" d="M232.892 735.661c-5.995-4.577-28.284-28.241-38.58-60.295-10.275-32.054-2.543-76.312-1.695-86.988s29.152-6.102 33.43-2.288c4.258 3.792-0.891 5.339-3.454 56.46-2.585 51.144 24.025 77.837 24.025 80.866 0 3.072-8.474 16.228-13.728 12.246v0zM524.432 107.668c-62.605 1.504-130.335-25.191-129.466-85.505 0.847-60.274 60.020-81.629 104.617-83.917 44.596-2.246 161.225 5.361 159.487 66.419-1.716 61.036-59.935 101.227-134.637 103.006v0zM508.14-28.96c-39.448 0-68.579 29.004-69.447 51.906-0.891 22.881 23.134 56.46 89.171 57.986 29.978 0.699 84.024-18.305 87.455-61.799 3.412-43.495-67.774-48.092-107.18-48.092v0zM511.571 954.661c-212.685 5.339-355.86-119.806-387.555-232.748-31.759-112.943 31.927-264.614 38.557-266.308 101.184-25.952 244.378 31.314 248.681 38.135 4.28 6.886 14.576 13.749-22.289 76.333-36.884 62.583 10.275 161.754 115.739 148.026s120.081-90.804 105.485-150.314c-14.576-59.532-66.863-112.985-121.756-181.627-54.871-68.684-52.329-173.979-45.444-191.52 6.865-17.563 160.335-21.398 195.483-16.081 35.168 5.381 21.461-22.118 65.168 118.302 43.728 140.378 168.068 177.030 174.084 371.644 6.018 194.572-153.513 280.799-366.156 286.159zM833.155 640.261c-5.149 4.577-44.618 79.342-53.197 79.342s-18.008-9.894-15.445-12.203c2.585-2.268 62.605-83.176 63.452-90.804s-9.428-41.206-10.275-38.919c-0.868 2.288-55.74 96.163-60.887 96.163s-17.139-10.678-12.839-16.017c4.28-5.339 66.863-100.738 66.863-100.738s-16.291-35.847-18.854-34.322c-2.585 1.504-58.324 99.193-61.736 99.193s-11.164-13.728-9.428-17.563c1.695-3.834 62.583-93.854 62.583-99.956 0-6.122-26.588-34.363-26.588-34.363s-47.202 95.379-51.461 95.379c-4.301 0-13.685-18.326-13.685-18.326s53.133-93.854 53.133-96.121c0-2.309-19.723-29.787-19.723-29.787s-39.428 85.485-41.992 85.485c-2.585 0-14.576-14.491-12.839-17.542 1.695-3.050 42.011-79.362 42.011-83.176 0-3.834-16.334-45.761-18.898-43.495s-43.728 93.133-47.202 93.875c-3.39 0.784-17.139-16.017-12.817-21.355 4.301-5.339 49.744-90.804 49.744-94.638 0-3.813-12.012-35.826-14.576-35.083-2.563 0.762-52.307 99.976-52.307 99.976s-15.445-15.275-13.708-19.872c1.737-4.555 54.044-100.718 54.044-100.718l-17.202-38.156c0 0-52.307 110.654-54.851 110.654-2.585 0-12.86-19.067-11.144-23.664 1.716-4.618 61.736-108.344 60.020-113.684s-20.592-7.627-24.852-4.577c-4.301 3.050-57.479 96.926-57.479 96.926s-12.839-15.275-8.539-19.872c4.28-4.618 48.898-77.837 44.596-77.837s-32.584-4.577-32.584 0-19.745 45.761-24.025 46.525c-4.301 0.805-17.16-4.618-16.334-9.174 0.891-4.597 25.72-36.63 19.745-36.63s-44.575 3.834-46.291 6.122c-1.737 2.288 0.847 85.464 31.715 135.823s128.598 149.551 135.484 219c6.843 69.427-17.182 124.361-96.904 167.072-79.785 42.753-190.376 3.813-217.812-80.866s33.43-145.759 33.43-151.86-119.193-38.135-178.364-19.872c0 0-46.334 97.688-36.016 189.254 10.296 91.566 108.917 180.864 180.928 211.393 72.010 30.508 238.384 42.732 328.404 10.656 89.998-32.054 133.746-106.818 145.759-140.399 0 0-22.309 12.965-24.872 12.203s-7.69-14.491-2.543-17.542c5.127-3.050 42.011-44.236 44.575-51.884 2.585-7.627 6.886-68.643 1.737-64.066l0.042 0.042zM492.674 59.576c-29.152-6.865-32.584-39.66-29.152-51.863 3.431-12.246 24.025-9.957 28.284-7.647 4.301 2.309 0 3.813-2.585 18.326-2.563 14.491 17.16 31.314 20.571 33.579 3.475 2.268-7.838 9.787-17.119 7.606z" />
<glyph unicode="&#xe921;" glyph-name="星星-半" d="M1023.232 577.903h-377.685l-133.547 377.702-133.564-377.702h-377.668l306.876-234.769-136.499-402.739 340.855 251.426 340.873-251.426-136.516 402.739 306.876 234.769zM717.295 125.943l-205.295 151.433-14.933-11.025v440.559l14.933 42.24 84.89-240.060h223.078l-184.644-141.261 81.971-241.886z" />
<glyph unicode="&#xe922;" glyph-name="星星-空" d="M852.873-59.597l-340.873 251.426-340.855-251.426 136.499 402.739-306.876 234.752h377.668l133.564 377.702 133.547-377.702h377.685l-306.876-234.769 136.516-402.722zM204.032 509.065l184.644-141.261-81.971-241.869 205.278 151.433 205.295-151.433-81.988 241.869 184.644 141.261h-223.044l-84.89 240.060-84.907-240.060h-223.061z" />
<glyph unicode="&#xe923;" glyph-name="星星-满" d="M1023.232 577.894h-377.685l-133.547 377.702-133.564-377.702h-377.668l306.876-234.769-136.499-402.722 340.855 251.426 340.873-251.426-136.516 402.722z" />
<glyph unicode="&#xe924;" glyph-name="分享" d="M1024.235 597.207l-389.075 261.868v-157.503c0 0-448.652-34.45-448.652-366.3 0 0 56.739 136.207 273.82 162.003 35.489 4.245 89.436 8.376 174.971 8.376v-170.31l388.937 261.868zM807.358 333.863v-204.643h-715.298v507.63h148.39c37.887 46.148 82.952 62.692 135.075 87.612 5.423 2.584 10.798 4.685 16.198 4.685h-391.958v-692.222h899.888v357.347l-92.297-60.409z" />
<glyph unicode="&#xe925;" glyph-name="消息" d="M235.22-1.564v204.257h-235.32v694.871h1024.175v-694.871h-539.504l-249.351-204.257zM47.278 250.098h235.32v-151.597l185.053 151.597h509.020v600.088h-929.393v-600.088zM170.399 685.548h691.074v-48.561h-691.074v48.561zM170.399 482.997h453.278v-48.588h-453.278v48.588z" />
</font>
</defs>
</svg>
